<svg width="215" height="60" viewBox="0 0 215 60" fill="none" xmlns="http://www.w3.org/2000/svg">
<path d="M211.798 31.5394C212.479 32.0116 213.413 31.8427 213.886 31.1621C214.358 30.4815 214.189 29.5469 213.508 29.0746L211.798 31.5394ZM0.0478516 57.6936C0.0478519 58.522 0.719425 59.1936 1.54785 59.1936L15.0479 59.1936C15.8763 59.1936 16.5479 58.522 16.5479 57.6936C16.5479 56.8652 15.8763 56.1936 15.0479 56.1936L3.04785 56.1936L3.04785 44.1936C3.04784 43.3652 2.37627 42.6936 1.54784 42.6936C0.719417 42.6936 0.0478449 43.3652 0.0478452 44.1936L0.0478516 57.6936ZM5.80943 55.6102C6.40568 55.035 6.42278 54.0855 5.84764 53.4892C5.2725 52.893 4.32291 52.8759 3.72666 53.451L5.80943 55.6102ZM10.3254 47.317C9.70809 47.8695 9.65559 48.8178 10.2081 49.4351C10.7606 50.0524 11.7089 50.1049 12.3262 49.5523L10.3254 47.317ZM19.0682 43.7508C19.7067 43.2231 19.7966 42.2776 19.2688 41.639C18.7411 41.0004 17.7956 40.9106 17.157 41.4383L19.0682 43.7508ZM24.2245 35.8389C23.5645 36.3396 23.4353 37.2806 23.936 37.9406C24.4367 38.6006 25.3776 38.7297 26.0376 38.229L24.2245 35.8389ZM33.2346 33.0123C33.9159 32.5411 34.0863 31.6068 33.6151 30.9254C33.1439 30.244 32.2095 30.0737 31.5282 30.5449L33.2346 33.0123ZM39.0658 25.5838C38.3634 26.023 38.15 26.9484 38.5892 27.6509C39.0284 28.3533 39.9538 28.5667 40.6563 28.1275L39.0658 25.5838ZM48.297 23.6024C49.0199 23.1978 49.278 22.2838 48.8734 21.5609C48.4689 20.838 47.5548 20.5799 46.8319 20.9845L48.297 23.6024ZM54.8177 16.7761C54.0752 17.1435 53.771 18.0432 54.1384 18.7857C54.5057 19.5282 55.4055 19.8324 56.148 19.465L54.8177 16.7761ZM64.1969 15.7431C64.9579 15.4156 65.3092 14.5332 64.9816 13.7723C64.6541 13.0113 63.7717 12.66 63.0108 12.9876L64.1969 15.7431ZM71.4009 9.64446C70.6231 9.92973 70.2239 10.7915 70.5092 11.5693C70.7944 12.347 71.6562 12.7462 72.434 12.461L71.4009 9.64446ZM80.8531 9.6402C81.6458 9.39955 82.0934 8.56185 81.8527 7.76915C81.6121 6.97644 80.7744 6.52892 79.9817 6.76957L80.8531 9.6402ZM88.7095 4.39438C87.9041 4.58843 87.4085 5.39864 87.6026 6.20401C87.7966 7.00939 88.6068 7.50497 89.4122 7.31091L88.7095 4.39438ZM98.0855 5.49126C98.901 5.34541 99.4439 4.56609 99.298 3.7506C99.1522 2.93512 98.3728 2.39227 97.5574 2.53811L98.0855 5.49126ZM106.497 1.21558C105.674 1.31201 105.085 2.05719 105.182 2.87999C105.278 3.70278 106.023 4.29162 106.846 4.19519L106.497 1.21558ZM115.684 3.43127C116.511 3.38514 117.144 2.67721 117.098 1.85007C117.052 1.02293 116.344 0.389794 115.517 0.435927L115.684 3.43127ZM124.561 0.208186C123.732 0.203741 123.057 0.871701 123.053 1.70012C123.048 2.52853 123.716 3.2037 124.545 3.20814L124.561 0.208186ZM133.397 3.52558C134.224 3.58044 134.939 2.95481 134.994 2.1282C135.048 1.30159 134.423 0.587022 133.596 0.532163L133.397 3.52558ZM142.603 1.40475C141.781 1.29999 141.03 1.88124 140.925 2.70302C140.82 3.52479 141.402 4.2759 142.223 4.38067L142.603 1.40475ZM150.98 5.76503C151.794 5.91877 152.579 5.38349 152.733 4.56945C152.886 3.75541 152.351 2.97088 151.537 2.81714L150.98 5.76503ZM160.366 4.75666C159.563 4.5552 158.748 5.04329 158.547 5.84685C158.345 6.6504 158.833 7.46513 159.637 7.6666L160.366 4.75666ZM168.175 10.0736C168.966 10.3214 169.807 9.88139 170.055 9.09088C170.303 8.30038 169.863 7.45868 169.072 7.21091L168.175 10.0736ZM177.618 10.1605C176.843 9.86807 175.977 10.2593 175.685 11.0344C175.392 11.8095 175.784 12.6749 176.559 12.9674L177.618 10.1605ZM184.767 16.331C185.524 16.6664 186.41 16.3243 186.746 15.5668C187.081 14.8093 186.739 13.9234 185.981 13.5879L184.767 16.331ZM194.142 17.4752C193.404 17.0985 192.501 17.3913 192.124 18.1291C191.748 18.867 192.04 19.7705 192.778 20.1472L194.142 17.4752ZM200.568 24.3951C201.284 24.8113 202.202 24.568 202.618 23.8517C203.035 23.1355 202.791 22.2174 202.075 21.8012L200.568 24.3951ZM209.764 26.5496C209.071 26.0956 208.141 26.2893 207.687 26.9823C207.233 27.6752 207.427 28.605 208.12 29.059L209.764 26.5496ZM2.60851 58.7542C3.67366 57.6891 4.74067 56.6411 5.80943 55.6102L3.72666 53.451C2.64485 54.4945 1.56498 55.5551 0.487191 56.6329L2.60851 58.7542ZM12.3262 49.5523C14.5672 47.5464 16.8149 45.613 19.0682 43.7508L17.157 41.4383C14.8729 43.326 12.5954 45.2851 10.3254 47.317L12.3262 49.5523ZM26.0376 38.229C28.4319 36.4127 30.8313 34.6743 33.2346 33.0123L31.5282 30.5449C29.0883 32.2322 26.6533 33.9964 24.2245 35.8389L26.0376 38.229ZM40.6563 28.1275C43.2006 26.5366 45.748 25.0289 48.297 23.6024L46.8319 20.9845C44.2401 22.435 41.6509 23.9675 39.0658 25.5838L40.6563 28.1275ZM56.148 19.465C58.8312 18.1376 61.5148 16.8977 64.1969 15.7431L63.0108 12.9876C60.2796 14.1632 57.548 15.4254 54.8177 16.7761L56.148 19.465ZM72.434 12.461C75.2442 11.4302 78.0512 10.4908 80.8531 9.6402L79.9817 6.76957C77.1251 7.63677 74.2642 8.59422 71.4009 9.64446L72.434 12.461ZM89.4122 7.31091C92.3114 6.61235 95.2032 6.00676 98.0855 5.49126L97.5574 2.53811C94.6165 3.06409 91.6664 3.68189 88.7095 4.39438L89.4122 7.31091ZM106.846 4.19519C109.805 3.8484 112.752 3.59482 115.684 3.43127L115.517 0.435927C112.524 0.602852 109.517 0.86167 106.497 1.21558L106.846 4.19519ZM124.545 3.20814C127.514 3.22408 130.466 3.33101 133.397 3.52558L133.596 0.532163C130.604 0.333594 127.592 0.224448 124.561 0.208186L124.545 3.20814ZM142.223 4.38067C145.167 4.75587 148.086 5.21851 150.98 5.76503L151.537 2.81714C148.585 2.25962 145.606 1.7876 142.603 1.40475L142.223 4.38067ZM159.637 7.6666C162.513 8.38772 165.36 9.19128 168.175 10.0736L169.072 7.21091C166.203 6.31142 163.3 5.49207 160.366 4.75666L159.637 7.6666ZM176.559 12.9674C179.331 14.0135 182.068 15.1359 184.767 16.331L185.981 13.5879C183.232 12.3704 180.443 11.2266 177.618 10.1605L176.559 12.9674ZM192.778 20.1472C195.417 21.4946 198.015 22.9119 200.568 24.3951L202.075 21.8012C199.476 20.2909 196.83 18.8476 194.142 17.4752L192.778 20.1472ZM208.12 29.059C209.358 29.8703 210.584 30.6972 211.798 31.5394L213.508 29.0746C212.273 28.2173 211.025 27.3755 209.764 26.5496L208.12 29.059Z" fill="#FFEB78"/>
</svg>
