<svg width="33" height="116" viewBox="0 0 33 116" fill="none" xmlns="http://www.w3.org/2000/svg">
<path d="M2.88017 0.21494C2.15049 -0.177318 1.24099 0.0962119 0.848729 0.825886C0.456471 1.55556 0.730001 2.46507 1.45968 2.85733L2.88017 0.21494ZM9.19774 61.4548L8.87235 62.9191L9.03308 62.9548H9.19774V61.4548ZM13.8331 40.5275L14.2452 39.0852L13.8331 40.5275ZM28.6035 56.0892L27.1805 56.5635L28.6035 56.0892ZM7.72687 114.235C7.88934 115.047 8.67958 115.574 9.49192 115.412L22.7298 112.764C23.5421 112.602 24.0689 111.811 23.9065 110.999C23.744 110.187 22.9537 109.66 22.1414 109.822L10.3744 112.176L8.02104 100.409C7.85858 99.5965 7.06834 99.0696 6.256 99.2321C5.44366 99.3946 4.91683 100.185 5.0793 100.997L7.72687 114.235ZM13.421 41.9698C16.5928 42.876 19.5633 45.0803 22.0077 47.8465C24.4475 50.6072 26.2656 53.8187 27.1805 56.5635L30.0266 55.6149C28.9747 52.4594 26.9423 48.8999 24.2557 45.8599C21.574 42.8252 18.1426 40.1988 14.2452 39.0852L13.421 41.9698ZM27.1805 56.5635C30.8489 67.5686 29.3001 76.8024 25.2287 85.7213C21.1015 94.7625 14.4794 103.314 7.94967 113.109L10.4458 114.773C16.8041 105.235 23.6977 96.2996 27.9578 86.9671C32.2737 77.5125 33.9838 67.4865 30.0266 55.6149L27.1805 56.5635ZM21.2849 40.5275C21.2849 44.9994 20.7801 49.9571 18.9769 53.7468C18.0857 55.6198 16.9017 57.1554 15.3513 58.2254C13.8123 59.2876 11.8211 59.9548 9.19774 59.9548V62.9548C12.3612 62.9548 14.9618 62.1394 17.0554 60.6945C19.1376 59.2574 20.627 57.2611 21.6859 55.0357C23.7829 50.6285 24.2849 45.1225 24.2849 40.5275H21.2849ZM9.52314 59.9905C7.26723 59.4892 5.68301 58.0032 4.73063 55.9749C3.76442 53.917 3.48008 51.3427 3.8924 48.9064C4.30586 46.4633 5.38853 44.327 6.96243 43.022C8.47511 41.7677 10.5818 41.1586 13.421 41.9698L14.2452 39.0852C10.5234 38.0219 7.37637 38.7816 5.04757 40.7126C2.77998 42.5928 1.43333 45.4581 0.934465 48.4058C0.43446 51.3602 0.754796 54.5658 2.01507 57.2499C3.28919 59.9635 5.55329 62.1815 8.87235 62.9191L9.52314 59.9905ZM1.45968 2.85733C7.11896 5.89964 12.099 12.8096 15.689 20.4142C19.2688 27.9969 21.2849 35.8801 21.2849 40.5275H24.2849C24.2849 35.2716 22.0842 26.9334 18.4019 19.1334C14.7299 11.3553 9.40244 3.72118 2.88017 0.21494L1.45968 2.85733Z" fill="black"/>
</svg>
