<svg width="90" height="25" viewBox="0 0 90 25" fill="none" xmlns="http://www.w3.org/2000/svg">
<g clip-path="url(#clip0_4125_3632)">
<path d="M32.1269 13.7159V12.9385H29.502V16.6392H30.3954V15.4708H31.8828V14.6934H30.3954V13.7159H32.1269ZM34.4571 16.6847C34.9665 16.6847 35.4549 16.485 35.815 16.1294C36.1752 15.7739 36.3775 15.2917 36.3775 14.7889C36.3775 14.2861 36.1752 13.8039 35.815 13.4483C35.4549 13.0928 34.9665 12.8931 34.4571 12.8931C33.9478 12.8931 33.4594 13.0928 33.0992 13.4483C32.7391 13.8039 32.5368 14.2861 32.5368 14.7889C32.5368 15.2917 32.7391 15.7739 33.0992 16.1294C33.4594 16.485 33.9478 16.6847 34.4571 16.6847ZM34.4571 15.8709C34.2387 15.8772 34.0234 15.819 33.8387 15.7036C33.6541 15.5882 33.5086 15.421 33.421 15.2234C33.3333 15.0258 33.3075 14.8068 33.3468 14.5946C33.3861 14.3824 33.4888 14.1866 33.6417 14.0325C33.7945 13.8783 33.9906 13.7728 34.2046 13.7294C34.4187 13.686 34.641 13.7068 34.843 13.7891C35.045 13.8714 35.2175 14.0114 35.3383 14.1912C35.4591 14.3709 35.5227 14.5823 35.5209 14.798C35.5246 14.938 35.4998 15.0772 35.448 15.2076C35.3961 15.3379 35.3183 15.4566 35.2191 15.5567C35.1198 15.6568 35.0013 15.7361 34.8704 15.7901C34.7395 15.8441 34.599 15.8716 34.4571 15.8709ZM38.7308 16.6847C38.9592 16.7073 39.1898 16.6796 39.4061 16.6035C39.6223 16.5275 39.8188 16.4051 39.9814 16.245C40.1439 16.085 40.2684 15.8914 40.346 15.6781C40.4236 15.4648 40.4523 15.2372 40.4301 15.0116V12.9385H39.5367V15.0798C39.5367 15.1837 39.516 15.2866 39.4757 15.3826C39.4354 15.4785 39.3764 15.5657 39.302 15.6392C39.2276 15.7127 39.1392 15.7709 39.042 15.8107C38.9448 15.8504 38.8406 15.8709 38.7354 15.8709C38.6301 15.8709 38.5259 15.8504 38.4287 15.8107C38.3315 15.7709 38.2432 15.7127 38.1688 15.6392C38.0944 15.5657 38.0353 15.4785 37.9951 15.3826C37.9548 15.2866 37.9341 15.1837 37.9341 15.0798V12.9385H37.0453V15.0162C37.0232 15.2409 37.0518 15.4677 37.1288 15.6802C37.2059 15.8928 37.3296 16.0859 37.4911 16.2458C37.6526 16.4056 37.8479 16.5283 38.063 16.6049C38.2781 16.6816 38.5077 16.7104 38.7354 16.6892L38.7308 16.6847ZM43.8563 12.9385V15.1162L41.7564 12.9022H41.2636V16.6392H42.134V14.457L44.2432 16.6847H44.7359V12.9385H43.8563ZM47.1353 12.9385H45.6109V16.6392H47.1353C47.3924 16.657 47.6506 16.6224 47.8936 16.5375C48.1367 16.4526 48.3594 16.3192 48.548 16.1456C48.7366 15.972 48.8869 15.762 48.9898 15.5286C49.0926 15.2952 49.1456 15.0434 49.1456 14.7889C49.1456 14.5344 49.0926 14.2826 48.9898 14.0492C48.8869 13.8157 48.7366 13.6057 48.548 13.4322C48.3594 13.2586 48.1367 13.1252 47.8936 13.0403C47.6506 12.9554 47.3924 12.9207 47.1353 12.9385ZM47.0846 15.8618H46.5089V13.7159H47.0846C47.3728 13.7159 47.6493 13.829 47.8531 14.0302C48.0569 14.2314 48.1714 14.5043 48.1714 14.7889C48.1714 15.0734 48.0569 15.3463 47.8531 15.5476C47.6493 15.7488 47.3728 15.8618 47.0846 15.8618ZM52.0536 16.6392H53.0023L51.349 12.9385H50.7872L49.1201 16.6392H50.0688L50.3405 15.98H51.7819L52.049 16.6392H52.0536ZM51.0589 14.1979L51.5194 15.239H50.6398L51.1003 14.1979H51.0589ZM55.9588 12.9385H52.62V13.7159H53.8404V16.6392H54.7338V13.7159H55.9588V12.9385ZM56.4193 16.6392H57.3081V12.9385H56.4147V16.6392H56.4193ZM59.9561 16.6847C60.4654 16.6847 60.9539 16.485 61.314 16.1294C61.6742 15.7739 61.8765 15.2917 61.8765 14.7889C61.8765 14.2861 61.6742 13.8039 61.314 13.4483C60.9539 13.0928 60.4654 12.8931 59.9561 12.8931C59.4468 12.8931 58.9583 13.0928 58.5982 13.4483C58.2381 13.8039 58.0357 14.2861 58.0357 14.7889C58.0357 15.2917 58.2381 15.7739 58.5982 16.1294C58.9583 16.485 59.4468 16.6847 59.9561 16.6847ZM59.9561 15.8709C59.7377 15.8772 59.5223 15.819 59.3377 15.7036C59.1531 15.5882 59.0076 15.421 58.9199 15.2234C58.8323 15.0258 58.8064 14.8068 58.8458 14.5946C58.8851 14.3824 58.9878 14.1866 59.1406 14.0325C59.2935 13.8783 59.4895 13.7728 59.7036 13.7294C59.9177 13.686 60.14 13.7068 60.342 13.7891C60.544 13.8714 60.7164 14.0114 60.8372 14.1912C60.958 14.3709 61.0217 14.5823 61.0199 14.798C61.0236 14.938 60.9988 15.0772 60.9469 15.2076C60.8951 15.3379 60.8172 15.4566 60.718 15.5567C60.6188 15.6568 60.5002 15.7361 60.3694 15.7901C60.2385 15.8441 60.0979 15.8716 59.9561 15.8709ZM65.1876 12.9385V15.1162L63.083 12.9022H62.5903V16.6392H63.4607V14.457L65.5698 16.6847H66.058V12.9385H65.1876Z" fill="white"/>
<path d="M32.1269 7.401V6.62357H29.502V10.3197H30.3954V9.15133H31.8828V8.37391H30.3954V7.401H32.1269ZM35.7374 9.64233C35.3598 9.64233 35.2769 9.34682 34.9683 9.13769C35.1861 9.03614 35.3692 8.87411 35.4951 8.67144C35.6211 8.46877 35.6845 8.23424 35.6775 7.99656C35.6775 7.18277 35.0604 6.63267 34.1164 6.63267H32.7348V10.3288H33.6282V9.33318H33.9828C34.365 9.33318 34.5124 10.3697 35.4611 10.3697C35.601 10.3739 35.7408 10.357 35.8755 10.3197V9.63778L35.7374 9.64233ZM33.642 8.56485V7.38736H34.0657C34.1532 7.37788 34.2418 7.38647 34.3258 7.41259C34.4098 7.4387 34.4874 7.48176 34.5537 7.53904C34.6199 7.59632 34.6734 7.66657 34.7107 7.74533C34.748 7.82409 34.7683 7.90964 34.7703 7.99656C34.7703 8.32844 34.4894 8.56485 34.0703 8.56485H33.642ZM36.5433 10.3197H37.4367V6.62357H36.5433V10.3197ZM39.1959 9.54686V8.84672H40.7294V8.0693H39.1959V7.401H40.9321V6.62357H38.2979V10.3197H40.9597V9.56049L39.1959 9.54686ZM43.2393 6.62357H41.7149V10.3197H43.2393C43.4929 10.3322 43.7465 10.2936 43.9845 10.2063C44.2226 10.119 44.4402 9.9849 44.6242 9.81207C44.8082 9.63924 44.9547 9.4313 45.0547 9.20088C45.1548 8.97046 45.2064 8.72236 45.2064 8.47165C45.2064 8.22094 45.1548 7.97284 45.0547 7.74242C44.9547 7.512 44.8082 7.30406 44.6242 7.13123C44.4402 6.9584 44.2226 6.82428 43.9845 6.73701C43.7465 6.64975 43.4929 6.61115 43.2393 6.62357ZM43.1886 9.54231H42.6083V7.401H43.1886C43.337 7.39145 43.4857 7.41205 43.6257 7.46154C43.7657 7.51102 43.8939 7.58833 44.0024 7.68868C44.1109 7.78904 44.1974 7.91031 44.2565 8.04498C44.3156 8.17966 44.3461 8.32487 44.3461 8.47165C44.3461 8.61843 44.3156 8.76365 44.2565 8.89833C44.1974 9.033 44.1109 9.15426 44.0024 9.25462C43.8939 9.35497 43.7657 9.43229 43.6257 9.48177C43.4857 9.53126 43.337 9.55186 43.1886 9.54231ZM48.8576 9.64233C48.48 9.64233 48.3971 9.34682 48.0931 9.13769C48.3102 9.03521 48.4926 8.87297 48.6184 8.67052C48.7443 8.46806 48.8081 8.23402 48.8023 7.99656C48.8023 7.18277 48.1806 6.63267 47.2366 6.63267H45.855V10.3288H46.7484V9.33318H47.103C47.4852 9.33318 47.6372 10.3697 48.5859 10.3697C48.7243 10.3746 48.8627 10.3577 48.9957 10.3197V9.63778L48.8576 9.64233ZM46.7622 8.56485V7.38736H47.1767C47.2642 7.37788 47.3528 7.38647 47.4368 7.41259C47.5208 7.4387 47.5984 7.48176 47.6647 7.53904C47.7309 7.59632 47.7844 7.66657 47.8217 7.74533C47.859 7.82409 47.8793 7.90964 47.8813 7.99656C47.8813 8.32844 47.605 8.56485 47.1813 8.56485H46.7622ZM49.6635 10.3197H50.5615V6.62357H49.6635V10.3197ZM53.2187 10.3697C53.6646 10.387 54.1036 10.2574 54.4667 10.0015L54.0753 9.30135C53.832 9.45906 53.5466 9.54138 53.2556 9.53776C53.1078 9.54729 52.9597 9.52679 52.8203 9.47753C52.6809 9.42826 52.5532 9.35129 52.4451 9.25136C52.3371 9.15142 52.2509 9.03066 52.192 8.89655C52.1332 8.76244 52.1028 8.61782 52.1028 8.47165C52.1028 8.32548 52.1332 8.18086 52.192 8.04675C52.2509 7.91264 52.3371 7.79188 52.4451 7.69195C52.5532 7.59202 52.6809 7.51504 52.8203 7.46577C52.9597 7.41651 53.1078 7.39601 53.2556 7.40554C53.5469 7.39963 53.833 7.48215 54.0753 7.64195L54.4667 6.94182C54.1016 6.68984 53.664 6.5607 53.2187 6.57356C52.9583 6.56098 52.698 6.60074 52.4537 6.69045C52.2093 6.78016 51.9859 6.91794 51.7971 7.09544C51.6083 7.27293 51.458 7.48643 51.3553 7.723C51.2526 7.95957 51.1996 8.21427 51.1996 8.47165C51.1996 8.72903 51.2526 8.98374 51.3553 9.2203C51.458 9.45687 51.6083 9.67038 51.7971 9.84787C51.9859 10.0254 52.2093 10.1631 52.4537 10.2528C52.698 10.3426 52.9583 10.3823 53.2187 10.3697ZM57.6075 6.62357V8.09204H55.9266V6.62357H55.0055V10.3197H55.9266V8.86945H57.6213V10.3197H58.5147V6.62357H57.6075ZM63.1337 6.62357V8.80126L61.0337 6.58266H60.5318V10.3197H61.4022V8.14205L63.5113 10.3697H64.0041V6.62357H63.1337ZM67.3567 10.3197H68.3053L66.6521 6.62357H66.0948L64.4232 10.3197H65.3718L65.6435 9.66506H67.0896L67.3567 10.3197ZM66.3666 7.87836L66.8271 8.92401H65.9475L66.408 7.87836H66.3666ZM70.1935 10.3697C70.4219 10.3923 70.6525 10.3646 70.8688 10.2886C71.085 10.2126 71.2815 10.0901 71.444 9.93009C71.6066 9.77006 71.7312 9.57643 71.8087 9.36315C71.8863 9.14987 71.915 8.92225 71.8928 8.6967V6.62357H70.9994V8.76489C70.9994 8.97469 70.915 9.1759 70.7647 9.32425C70.6144 9.4726 70.4106 9.55595 70.1981 9.55595C69.9855 9.55595 69.7817 9.4726 69.6315 9.32425C69.4812 9.1759 69.3968 8.97469 69.3968 8.76489V6.62357H68.4987V8.6967C68.4767 8.92141 68.5053 9.14816 68.5823 9.36072C68.6594 9.57328 68.7831 9.7664 68.9446 9.92625C69.1061 10.0861 69.3014 10.2088 69.5165 10.2854C69.7316 10.3621 69.9612 10.3909 70.1889 10.3697H70.1935ZM76.7881 10.3197L76.6868 6.62357H76.1388L74.7158 8.96947L73.3342 6.62357H72.7816L72.6803 10.3197H73.5599V8.41028L74.4579 9.96512H75.0059L75.9269 8.41482V10.3197H76.7881ZM80.1038 10.3197H81.0525L79.4131 6.62357H78.8512L77.1842 10.3197H78.1328L78.4045 9.66506H79.8506L80.1177 10.3197H80.1038ZM79.1091 7.87836L79.5696 8.92401H78.69L79.1275 7.87836H79.1091ZM84.0597 6.62357V8.80126L81.9597 6.58266H81.4624V10.3197H82.3374V8.14205L84.4419 10.3697H84.9393V6.62357H84.0597ZM88.4116 6.62357V8.80126L86.3209 6.58266H85.8143V10.3197H86.6847V8.14205L88.7938 10.3697H89.2866V6.62357H88.4116Z" fill="white"/>
<path d="M21.5485 10.324C21.5479 8.8605 21.2308 7.41401 20.6185 6.08119C20.0062 4.74837 19.1127 3.55991 17.9979 2.59525V13.4519C18.0024 13.7383 17.9122 14.0183 17.741 14.2497C17.5698 14.481 17.327 14.651 17.0493 14.7339L4.25603 18.1164C5.7672 19.4143 7.62469 20.2557 9.60692 20.5401C11.5891 20.8245 13.6124 20.54 15.4353 19.7205C17.2583 18.9009 18.8039 17.581 19.8878 15.9181C20.9718 14.2552 21.5483 12.3196 21.5485 10.3422V10.324ZM10.2428 14.5884V12.0379L13.3098 11.2287V9.52838L10.2428 10.3376V8.19631L13.8164 7.25068V5.55035L8.40071 6.98245V15.0613L10.2428 14.5702V14.5884ZM17.9565 2.54525C15.8658 0.788641 13.1584 -0.084301 10.4205 0.115456C7.68264 0.315212 5.13463 1.57158 3.32826 3.61252C1.52189 5.65345 0.602542 8.31467 0.769292 11.0199C0.936042 13.7252 2.17547 16.2567 4.21919 18.0664V7.21431C4.21422 6.92786 4.30357 6.64755 4.47382 6.41553C4.64407 6.18352 4.886 6.01233 5.16326 5.9277L17.9565 2.54525Z" fill="white"/>
<path d="M69.9916 14.307V14.0751H68.3613V16.6347H68.6238V15.6163H69.8396V15.3799H68.6238V14.307H69.9916ZM71.1198 16.6665C71.2936 16.6656 71.4632 16.6139 71.6073 16.5179C71.7513 16.422 71.8633 16.2861 71.9292 16.1273C71.9951 15.9686 72.0118 15.7941 71.9774 15.626C71.9429 15.4578 71.8588 15.3035 71.7356 15.1826C71.6124 15.0616 71.4557 14.9793 71.2852 14.9462C71.1147 14.913 70.938 14.9305 70.7776 14.9963C70.6171 15.0622 70.48 15.1735 70.3836 15.3162C70.2871 15.4589 70.2356 15.6266 70.2356 15.7982C70.235 15.9127 70.2575 16.0263 70.3018 16.1322C70.3461 16.2382 70.4112 16.3343 70.4935 16.4151C70.5758 16.496 70.6736 16.5598 70.7811 16.603C70.8886 16.6461 71.0038 16.6677 71.1198 16.6665ZM71.1198 16.4301C70.9925 16.4337 70.867 16.3997 70.7593 16.3325C70.6517 16.2653 70.5668 16.168 70.5155 16.0529C70.4642 15.9377 70.4489 15.8102 70.4714 15.6864C70.494 15.5626 70.5535 15.4483 70.6422 15.3581C70.731 15.2679 70.845 15.2059 70.9696 15.18C71.0943 15.1541 71.2239 15.1655 71.3419 15.2128C71.46 15.26 71.5611 15.341 71.6322 15.4452C71.7034 15.5495 71.7415 15.6724 71.7415 15.7982C71.7434 15.8801 71.7287 15.9616 71.6983 16.0379C71.668 16.1142 71.6225 16.1838 71.5647 16.2426C71.5068 16.3014 71.4377 16.3483 71.3613 16.3804C71.285 16.4126 71.2029 16.4295 71.1198 16.4301ZM73.2751 14.9253C73.1489 14.918 73.0237 14.9512 72.9182 15.0201C72.8128 15.0889 72.7328 15.1896 72.6902 15.3072V14.9616H72.46V16.6347H72.7224V15.6981C72.7206 15.6294 72.7328 15.5609 72.7585 15.4969C72.7841 15.433 72.8227 15.3748 72.8717 15.3259C72.9208 15.2771 72.9794 15.2385 73.044 15.2126C73.1085 15.1868 73.1778 15.1741 73.2474 15.1753C73.2991 15.1725 73.3509 15.1803 73.3994 15.198V14.9389C73.3551 14.9337 73.3102 14.9337 73.2659 14.9389L73.2751 14.9253ZM76.2961 14.307V14.0751H74.6705V16.6347H74.9283V15.6163H76.1487V15.3799H74.9283V14.307H76.2961ZM77.4658 14.9253C77.3396 14.918 77.2144 14.9512 77.109 15.0201C77.0035 15.0889 76.9235 15.1896 76.8809 15.3072V14.9616H76.6507V16.6347H76.9132V15.6981C76.9107 15.6296 76.9223 15.5612 76.9475 15.4973C76.9726 15.4333 77.0107 15.3751 77.0594 15.3262C77.1081 15.2772 77.1664 15.2386 77.2307 15.2127C77.2951 15.1867 77.3641 15.174 77.4336 15.1753C77.4868 15.1725 77.54 15.1803 77.5901 15.198L77.6132 14.9389C77.5688 14.9339 77.524 14.9339 77.4796 14.9389L77.4658 14.9253ZM79.3585 15.7618C79.3675 15.6547 79.3537 15.5469 79.3181 15.4454C79.2825 15.3438 79.2259 15.2507 79.1518 15.172C79.0777 15.0932 78.9878 15.0306 78.8878 14.9882C78.7878 14.9457 78.6799 14.9243 78.5711 14.9253C78.4557 14.9233 78.3411 14.9447 78.2344 14.9882C78.1277 15.0317 78.0312 15.0964 77.9509 15.1782C77.8706 15.2601 77.8082 15.3573 77.7675 15.464C77.7268 15.5706 77.7088 15.6843 77.7145 15.7982C77.7116 15.9165 77.7338 16.0341 77.7796 16.1434C77.8255 16.2528 77.894 16.3515 77.9806 16.4332C78.0673 16.515 78.1704 16.5779 78.2831 16.6181C78.3959 16.6583 78.5159 16.6748 78.6355 16.6665C78.873 16.674 79.1053 16.5965 79.2895 16.4483L79.1697 16.2573C79.0285 16.3797 78.8464 16.4461 78.6585 16.4437C78.4944 16.4527 78.3331 16.3984 78.2086 16.2925C78.0841 16.1865 78.006 16.037 77.9908 15.8754H79.3724C79.3724 15.8754 79.3724 15.83 79.3724 15.7618H79.3585ZM78.5803 15.148C78.6498 15.1468 78.7188 15.1594 78.7833 15.1849C78.8478 15.2105 78.9065 15.2485 78.9559 15.2968C79.0052 15.3451 79.0443 15.4027 79.0707 15.4662C79.0972 15.5296 79.1105 15.5977 79.1099 15.6663H77.977C77.9941 15.5213 78.0655 15.3878 78.1771 15.2919C78.2886 15.1961 78.4324 15.1448 78.5803 15.148ZM81.3204 15.7618C81.3293 15.6547 81.3156 15.5469 81.28 15.4454C81.2444 15.3438 81.1877 15.2507 81.1136 15.172C81.0395 15.0932 80.9496 15.0306 80.8496 14.9882C80.7496 14.9457 80.6417 14.9243 80.5329 14.9253C80.4175 14.9233 80.3029 14.9447 80.1962 14.9882C80.0895 15.0317 79.993 15.0964 79.9127 15.1782C79.8324 15.2601 79.77 15.3573 79.7293 15.464C79.6887 15.5706 79.6706 15.6843 79.6763 15.7982C79.6737 15.9144 79.6952 16.03 79.7397 16.1378C79.7841 16.2455 79.8505 16.3431 79.9347 16.4245C80.0188 16.5059 80.119 16.5693 80.2291 16.611C80.3391 16.6526 80.4566 16.6715 80.5743 16.6665C80.8132 16.6738 81.0468 16.5964 81.2329 16.4483L81.1085 16.2573C80.9687 16.379 80.7883 16.4454 80.6019 16.4437C80.4373 16.4527 80.2755 16.3987 80.1502 16.2928C80.025 16.1869 79.9459 16.0374 79.9296 15.8754H81.3111C81.3111 15.8754 81.3111 15.83 81.3111 15.7618H81.3204ZM80.5375 15.148C80.607 15.1468 80.676 15.1594 80.7405 15.1849C80.805 15.2105 80.8637 15.2485 80.9131 15.2968C80.9624 15.3451 81.0015 15.4027 81.0279 15.4662C81.0544 15.5296 81.0677 15.5977 81.0671 15.6663H79.9388C79.9549 15.5217 80.0253 15.3882 80.1361 15.2923C80.2469 15.1964 80.3901 15.1449 80.5375 15.148ZM83.1118 14.0342V15.2526C83.0372 15.1482 82.9377 15.0636 82.8219 15.0065C82.7062 14.9494 82.578 14.9215 82.4486 14.9253C82.2257 14.9412 82.0172 15.0398 81.865 15.2013C81.7128 15.3628 81.6282 15.5753 81.6282 15.7959C81.6282 16.0165 81.7128 16.2289 81.865 16.3904C82.0172 16.552 82.2257 16.6506 82.4486 16.6665C82.5803 16.6713 82.7109 16.6424 82.8279 16.5826C82.9449 16.5229 83.0443 16.4343 83.1164 16.3255V16.6347H83.3466V14.0342H83.1118ZM82.5039 16.4301C82.3429 16.4166 82.1929 16.344 82.0836 16.2265C81.9743 16.1091 81.9136 15.9554 81.9136 15.7959C81.9136 15.6364 81.9743 15.4827 82.0836 15.3652C82.1929 15.2478 82.3429 15.1751 82.5039 15.1617C82.6649 15.1751 82.8149 15.2478 82.9242 15.3652C83.0335 15.4827 83.0942 15.6364 83.0942 15.7959C83.0942 15.9554 83.0335 16.1091 82.9242 16.2265C82.8149 16.344 82.6649 16.4166 82.5039 16.4301ZM84.6914 16.6665C84.8651 16.6656 85.0347 16.6139 85.1788 16.5179C85.3228 16.422 85.4348 16.2861 85.5007 16.1273C85.5666 15.9686 85.5833 15.7941 85.5489 15.626C85.5144 15.4578 85.4303 15.3035 85.3071 15.1826C85.1839 15.0616 85.0272 14.9793 84.8567 14.9462C84.6862 14.913 84.5096 14.9305 84.3491 14.9963C84.1886 15.0622 84.0515 15.1735 83.9551 15.3162C83.8586 15.4589 83.8072 15.6266 83.8072 15.7982C83.8065 15.9127 83.829 16.0263 83.8733 16.1322C83.9176 16.2382 83.9827 16.3343 84.065 16.4151C84.1473 16.496 84.2451 16.5598 84.3526 16.603C84.4601 16.6461 84.5753 16.6677 84.6914 16.6665ZM84.6914 16.4301C84.5639 16.4346 84.4379 16.4014 84.3297 16.3348C84.2214 16.2682 84.1358 16.1712 84.0838 16.0562C84.0318 15.9412 84.0158 15.8134 84.0378 15.6894C84.0599 15.5653 84.119 15.4506 84.2075 15.36C84.296 15.2693 84.41 15.2068 84.5347 15.1805C84.6595 15.1543 84.7894 15.1654 84.9077 15.2125C85.026 15.2595 85.1274 15.3405 85.1988 15.4448C85.2702 15.5492 85.3084 15.6722 85.3084 15.7982C85.3109 15.9626 85.2474 16.1213 85.1318 16.2397C85.0162 16.3581 84.8579 16.4265 84.6914 16.4301ZM88.067 14.9253C88.0125 15.0423 87.9253 15.1414 87.8155 15.2109C87.7057 15.2804 87.578 15.3174 87.4476 15.3174C87.3171 15.3174 87.1895 15.2804 87.0797 15.2109C86.9699 15.1414 86.8826 15.0423 86.8282 14.9253C86.708 14.9247 86.59 14.9566 86.4869 15.0175C86.3839 15.0784 86.2996 15.166 86.2433 15.2708V14.9616H86.0315V16.6347H86.294V15.639C86.3009 15.5115 86.3566 15.3914 86.4498 15.3028C86.5429 15.2142 86.6666 15.1638 86.7959 15.1617C87.0999 15.1617 87.2795 15.389 87.2795 15.7345V16.6438H87.5374V15.7345C87.5324 15.6646 87.5418 15.5944 87.565 15.5282C87.5883 15.4619 87.625 15.401 87.6727 15.3492C87.7205 15.2973 87.7785 15.2556 87.8431 15.2265C87.9077 15.1974 87.9776 15.1815 88.0485 15.1799C88.3525 15.1799 88.5091 15.4072 88.5091 15.7527V16.662H88.7716V15.73C88.7827 15.6314 88.7724 15.5315 88.7415 15.4371C88.7105 15.3427 88.6597 15.2559 88.5922 15.1824C88.5247 15.1089 88.4421 15.0504 88.35 15.0108C88.2579 14.9711 88.1582 14.9513 88.0577 14.9525L88.067 14.9253ZM89.4485 16.6665C89.4749 16.6665 89.5011 16.6613 89.5254 16.6512C89.5497 16.6411 89.5718 16.6263 89.5902 16.6076C89.6087 16.589 89.6231 16.5669 89.6328 16.5427C89.6425 16.5184 89.6472 16.4925 89.6465 16.4665C89.6509 16.438 89.649 16.4089 89.641 16.3812C89.6329 16.3535 89.6189 16.3279 89.5999 16.306C89.5809 16.2842 89.5573 16.2666 89.5308 16.2546C89.5042 16.2426 89.4754 16.2364 89.4462 16.2364C89.417 16.2364 89.3882 16.2426 89.3617 16.2546C89.3352 16.2666 89.3116 16.2842 89.2925 16.306C89.2735 16.3279 89.2595 16.3535 89.2515 16.3812C89.2434 16.4089 89.2415 16.438 89.2459 16.4665C89.2453 16.4929 89.2501 16.5192 89.26 16.5437C89.27 16.5683 89.2849 16.5906 89.3038 16.6093C89.3228 16.628 89.3454 16.6427 89.3702 16.6525C89.3951 16.6624 89.4217 16.6671 89.4485 16.6665Z" fill="white"/>
<path d="M31.2981 21.4219H29.2441V21.6537H30.1652V23.9769H30.4323V21.6537H31.3165V21.4219H31.2981ZM32.4724 22.272C32.3534 22.2673 32.2353 22.2938 32.1301 22.349C32.0249 22.4041 31.9364 22.4858 31.8737 22.5857V21.3809H31.6204V23.9769H31.8829V23.0313C31.8835 22.9616 31.8981 22.8928 31.9258 22.8287C31.9535 22.7647 31.9937 22.7067 32.0443 22.658C32.0948 22.6094 32.1546 22.5712 32.2201 22.5455C32.2857 22.5198 32.3558 22.5072 32.4263 22.5084C32.5006 22.508 32.5742 22.5231 32.6421 22.5527C32.71 22.5824 32.7708 22.6259 32.8204 22.6805C32.8701 22.7351 32.9074 22.7994 32.9299 22.8693C32.9525 22.9392 32.9598 23.013 32.9513 23.0858V23.9951H33.2138V23.0858C33.223 22.9853 33.2105 22.8841 33.1771 22.7887C33.1437 22.6933 33.0902 22.606 33.0201 22.5326C32.9501 22.4591 32.865 22.4011 32.7706 22.3625C32.6762 22.3239 32.5746 22.3054 32.4724 22.3084V22.272ZM35.1342 22.3039V22.6039C35.0595 22.4961 34.9581 22.4089 34.8396 22.3508C34.721 22.2927 34.5894 22.2656 34.4572 22.272C34.2343 22.2879 34.0258 22.3866 33.8736 22.5481C33.7214 22.7096 33.6368 22.922 33.6368 23.1426C33.6368 23.3633 33.7214 23.5757 33.8736 23.7372C34.0258 23.8987 34.2343 23.9974 34.4572 24.0133C34.589 24.018 34.7198 23.9896 34.8374 23.9308C34.955 23.8719 35.0556 23.7845 35.1296 23.6768V23.9769H35.3552V22.2902L35.1342 22.3039ZM34.4987 23.7769C34.3377 23.7634 34.1877 23.6907 34.0784 23.5733C33.969 23.4558 33.9084 23.3022 33.9084 23.1426C33.9084 22.9831 33.969 22.8295 34.0784 22.712C34.1877 22.5946 34.3377 22.5219 34.4987 22.5084C34.6597 22.5219 34.8097 22.5946 34.919 22.712C35.0283 22.8295 35.089 22.9831 35.089 23.1426C35.089 23.3022 35.0283 23.4558 34.919 23.5733C34.8097 23.6907 34.6597 23.7634 34.4987 23.7769ZM36.0552 21.9583C36.0953 21.9583 36.1345 21.9466 36.1678 21.9246C36.2011 21.9026 36.2271 21.8714 36.2424 21.8348C36.2578 21.7983 36.2618 21.7581 36.254 21.7193C36.2461 21.6805 36.2268 21.6448 36.1985 21.6168C36.1702 21.5889 36.1341 21.5698 36.0948 21.5621C36.0555 21.5544 36.0147 21.5583 35.9777 21.5735C35.9407 21.5886 35.909 21.6143 35.8867 21.6472C35.8645 21.6801 35.8526 21.7187 35.8526 21.7583C35.852 21.7847 35.8568 21.811 35.8667 21.8356C35.8767 21.8601 35.8916 21.8824 35.9105 21.9011C35.9295 21.9198 35.9521 21.9345 35.9769 21.9444C36.0018 21.9542 36.0284 21.9589 36.0552 21.9583ZM35.9217 23.9769H36.1888V22.2902H35.9263V23.9633L35.9217 23.9769ZM36.7644 23.9769H37.0453V21.3809H36.7828V23.9769H36.7644ZM38.9795 22.2902V22.5903C38.9052 22.4821 38.8038 22.3947 38.6852 22.3366C38.5666 22.2784 38.4348 22.2515 38.3026 22.2584C38.0797 22.2743 37.8712 22.3729 37.719 22.5345C37.5667 22.696 37.4821 22.9084 37.4821 23.129C37.4821 23.3496 37.5667 23.562 37.719 23.7236C37.8712 23.8851 38.0797 23.9837 38.3026 23.9996C38.4336 24.0036 38.5634 23.9748 38.6802 23.916C38.7969 23.8572 38.8967 23.7702 38.9703 23.6632V23.9633H39.196V22.2902H38.9795ZM38.344 23.7632C38.183 23.7497 38.033 23.6771 37.9237 23.5597C37.8144 23.4422 37.7537 23.2885 37.7537 23.129C37.7537 22.9695 37.8144 22.8158 37.9237 22.6984C38.033 22.5809 38.183 22.5083 38.344 22.4948C38.505 22.5083 38.655 22.5809 38.7643 22.6984C38.8736 22.8158 38.9343 22.9695 38.9343 23.129C38.9343 23.2885 38.8736 23.4422 38.7643 23.5597C38.655 23.6771 38.505 23.7497 38.344 23.7632ZM40.619 22.2584C40.4925 22.2533 40.367 22.2829 40.2564 22.3439C40.1459 22.4049 40.0546 22.4949 39.9927 22.6039V22.2902H39.7762V23.9633H40.0387V22.9722C40.0558 22.844 40.1202 22.7267 40.2197 22.6427C40.3192 22.5588 40.4467 22.5142 40.5775 22.5175C40.652 22.5163 40.7259 22.5309 40.7942 22.5603C40.8625 22.5897 40.9236 22.6333 40.9734 22.688C41.0232 22.7428 41.0605 22.8074 41.0827 22.8776C41.105 22.9478 41.1118 23.0219 41.1025 23.0949V24.0042H41.3604V23.0949C41.3703 22.9947 41.3584 22.8935 41.3255 22.7981C41.2927 22.7027 41.2397 22.6154 41.17 22.5418C41.1002 22.4683 41.0155 22.4102 40.9212 22.3715C40.827 22.3329 40.7256 22.3144 40.6236 22.3175L40.619 22.2584ZM43.2531 21.3491V22.563C43.1783 22.4604 43.0791 22.3773 42.9644 22.3211C42.8496 22.2648 42.7227 22.2371 42.5946 22.2402C42.3717 22.2561 42.1632 22.3547 42.011 22.5163C41.8588 22.6778 41.7742 22.8902 41.7742 23.1108C41.7742 23.3314 41.8588 23.5439 42.011 23.7054C42.1632 23.8669 42.3717 23.9655 42.5946 23.9814C42.7262 23.9862 42.8569 23.9573 42.9739 23.8976C43.0909 23.8378 43.1902 23.7493 43.2624 23.6405V23.9451H43.4926V21.3809L43.2531 21.3491ZM42.6453 23.745C42.4843 23.7316 42.3343 23.6589 42.225 23.5415C42.1156 23.424 42.055 23.2703 42.055 23.1108C42.055 22.9513 42.1156 22.7976 42.225 22.6802C42.3343 22.5627 42.4843 22.4901 42.6453 22.4766C42.8063 22.4901 42.9563 22.5627 43.0656 22.6802C43.1749 22.7976 43.2356 22.9513 43.2356 23.1108C43.2356 23.2703 43.1749 23.424 43.0656 23.5415C42.9563 23.6589 42.8063 23.7316 42.6453 23.745Z" fill="white"/>
</g>
<defs>
<clipPath id="clip0_4125_3632">
<rect width="89" height="24" fill="white" transform="translate(0.664062 0.0131836)"/>
</clipPath>
</defs>
</svg>
