<svg width="15" height="16" viewBox="0 0 15 16" fill="none" xmlns="http://www.w3.org/2000/svg">
<path d="M11.7784 1.42317C11.7538 1.33431 11.7345 1.26266 11.7147 1.19045C11.577 0.700573 11.805 0.21458 12.2484 0.0518416C12.6913 -0.110897 13.1661 0.119603 13.3247 0.601708C13.5913 1.41151 13.8438 2.22631 14.0926 3.04223C14.1521 3.23662 14.2126 3.44768 14.2017 3.64597C14.1756 4.11085 13.8307 4.44966 13.3831 4.45633C12.5301 4.4691 11.6772 4.46855 10.8247 4.45633C10.412 4.45022 10.1042 4.15751 10.0202 3.74317C9.94562 3.37381 10.1235 2.99724 10.4699 2.7934C10.4971 2.77729 10.5247 2.76174 10.5753 2.73341C10.1736 2.45126 9.75624 2.25131 9.31697 2.10245C5.95042 0.958288 2.47327 3.13665 1.77471 6.82464C1.13354 10.2121 3.33304 13.5813 6.54046 14.1251C9.79276 14.6766 12.7586 12.3855 13.272 8.91746C13.3174 8.61087 13.3148 8.2965 13.3367 7.98602C13.3675 7.55335 13.6309 7.21677 13.9966 7.13901C14.3707 7.06014 14.7562 7.2462 14.9091 7.61056C14.9707 7.75664 15.0004 7.93048 14.9999 8.09155C14.9832 11.8201 12.4915 15.061 9.05872 15.8275C4.92892 16.7494 0.902944 13.8907 0.128737 9.48621C-0.63608 5.1356 2.08617 0.932183 6.18884 0.161259C8.11549 -0.200875 9.9138 0.197917 11.5697 1.31042C11.6245 1.34764 11.6787 1.38596 11.7335 1.42262C11.7382 1.42595 11.746 1.42262 11.7784 1.42262V1.42317Z" fill="black"/>
</svg>
