<svg width="38" height="52" viewBox="0 0 38 52" fill="none" xmlns="http://www.w3.org/2000/svg">
<g clip-path="url(#clip0_574_28932)">
<path d="M0.499251 30.5075C0.676619 30.964 0.791604 31.4536 1.04037 31.8712C2.50666 34.3358 6.05778 34.4496 7.72925 32.0807C8.67546 30.7415 9.56004 29.3627 10.4732 28.0019C10.5668 27.8473 10.6876 27.7095 10.8302 27.5943L10.8302 28.0357C10.8302 34.3147 10.8302 40.5939 10.8302 46.8734C10.8302 48.379 11.4314 49.5871 12.776 50.3864C14.1205 51.1856 15.5319 51.2288 16.9186 50.503C18.3052 49.7772 19.0387 48.6166 19.0598 47.1067C19.0928 44.771 19.0695 42.4338 19.0695 40.0974L19.0695 39.6805C21.328 40.6165 23.1888 40.1744 24.6754 38.2851C24.7506 38.3355 24.8453 38.3902 24.9339 38.4493C25.8043 39.0355 26.8771 39.2776 27.9291 39.1253C28.9811 38.9729 29.9313 38.4378 30.5819 37.6313C30.7901 37.3961 31.0245 37.1834 31.2809 36.997C31.3432 36.9487 31.4875 36.9927 31.5935 37.0006C32.3766 37.0596 33.1673 37.2166 33.9399 37.1597C35.5835 37.0352 36.7612 35.8154 37.0213 34.104C37.0726 33.748 37.0977 33.389 37.0964 33.0297C37.1017 30.2137 37.0679 27.397 37.1122 24.5818C37.134 23.1842 37.273 21.786 37.3963 20.3913C37.8021 15.7299 37.025 11.2356 35.2964 6.89106C34.7042 5.39703 34.499 3.85909 34.3194 2.3017C34.233 1.54065 34.1691 0.777429 34.0894 0.0156564L14.3234 0.0156581C14.2232 1.48497 14.123 2.95427 14.0228 4.42358C14.0019 4.82958 13.8551 5.2204 13.6012 5.54608C12.8819 6.4821 12.1943 7.43899 11.4968 8.39157C10.2192 10.1455 9.09182 11.9736 8.2869 13.9774C8.00131 14.6917 7.76983 15.434 7.40908 16.1123C5.55949 19.5878 3.67158 23.0453 1.80621 26.5136C1.31018 27.4352 0.716452 28.3179 0.490232 29.3548L0.499251 30.5075ZM32.2098 1.99497C32.2646 2.4457 32.3157 2.85899 32.3654 3.2766C32.5202 4.58342 32.7088 5.87296 33.1966 7.12651C33.7347 8.51181 34.1736 9.93888 34.5742 11.3674C35.4009 14.2993 35.5895 17.2881 35.3175 20.3078C35.1566 22.097 34.989 23.8827 35.0221 25.6849C35.0665 28.1048 35.0341 30.5262 35.0311 32.9469C35.0336 33.2224 35.0203 33.4979 34.9913 33.772C34.8989 34.5857 34.4472 35.1574 33.7204 35.1991C33.1342 35.233 32.5322 35.1214 31.946 35.027C31.6183 34.9738 31.4507 34.7304 31.4515 34.3949C31.4515 34.0233 31.4334 33.6525 31.4334 33.281C31.4334 31.3038 31.4334 29.3267 31.4282 27.3495C31.4352 27.135 31.4034 26.9208 31.3342 26.7166C31.246 26.5093 31.0854 26.3377 30.8797 26.2313C30.6741 26.1249 30.4362 26.0903 30.2069 26.1334C29.6898 26.2364 29.3674 26.6432 29.3666 27.2185C29.3631 29.8667 29.3606 32.5149 29.3591 35.1631C29.3639 35.3302 29.3493 35.4973 29.3155 35.6614C29.0728 36.6564 28.1589 37.2792 27.0879 37.1892C26.0928 37.1064 25.309 36.2935 25.2466 35.2733C25.2353 35.0818 25.2466 34.8895 25.2466 34.6973C25.2466 32.1921 25.2466 29.6874 25.2466 27.1832C25.2466 26.5503 24.8325 26.1241 24.2365 26.1197C23.6405 26.1154 23.2069 26.5597 23.2031 27.2034C23.2031 27.3711 23.2031 27.5389 23.2031 27.7074C23.2031 30.5233 23.2031 33.3393 23.1978 36.1553C23.1978 37.5003 21.9953 38.4248 20.6508 38.1296C19.7068 37.9215 19.08 37.1324 19.0778 36.1135C19.0718 33.1413 19.0778 30.1698 19.0778 27.1976C19.0778 26.5712 18.6622 26.1341 18.073 26.1233C17.4627 26.1133 17.0343 26.5453 17.032 27.1962C17.024 30.2759 17.0185 33.3554 17.0155 36.4347C17.0155 39.9454 17.0275 43.457 17.0253 46.9677C17.0246 47.2068 16.9853 47.4444 16.9088 47.6719C16.5849 48.6238 15.6244 49.1566 14.5737 48.9874C13.6102 48.8319 12.9075 48.0074 12.9075 47.0088C12.9075 39.3766 12.9095 31.7431 12.9135 24.108C12.9135 22.668 12.9107 21.2299 12.9052 19.7937C12.9052 19.2854 12.6257 18.9088 12.174 18.7806C11.4645 18.579 10.8527 19.0492 10.846 19.8232C10.8354 21.0473 10.846 22.2713 10.8377 23.4903C10.8377 23.6508 10.8144 23.8373 10.728 23.9669C9.17224 26.3113 7.6085 28.6504 6.03674 30.9842C5.71057 31.468 5.23783 31.7762 4.61479 31.8086C3.88052 31.8439 3.28829 31.5623 2.8862 30.9791C2.43527 30.321 2.45481 29.6233 2.82758 28.9343C4.92242 25.0568 7.01853 21.1802 9.11588 17.3046C9.2707 17.0166 9.45258 16.7387 9.5593 16.4356C10.2192 14.5592 10.9955 12.7325 12.1439 11.0779C13.2502 9.48239 14.4151 7.92356 15.5327 6.33449C15.7371 6.03683 15.8847 5.70674 15.9686 5.35959C16.0753 4.93191 16.0986 4.48406 16.1407 4.04341C16.2046 3.36732 16.2542 2.68978 16.3105 1.99785L32.2098 1.99497Z" fill="black"/>
<path d="M32.2098 1.99495L16.3015 1.99496C16.2452 2.68689 16.1956 3.36298 16.1317 4.04051C16.0896 4.48116 16.0663 4.92901 15.9596 5.3567C15.8757 5.70383 15.7281 6.03393 15.5237 6.33159C14.4061 7.92066 13.2412 9.47949 12.1349 11.075C10.9865 12.7311 10.2102 14.5563 9.55028 16.4327C9.44356 16.7358 9.26168 17.0152 9.10686 17.3017C7.01152 21.1783 4.91541 25.0548 2.81856 28.9314C2.44278 29.6204 2.42475 30.3181 2.87719 30.9762C3.27777 31.5594 3.87 31.8402 4.60577 31.8057C5.22882 31.7754 5.70155 31.4651 6.02773 30.9813C7.60049 28.6479 9.16423 26.3088 10.719 23.964C10.8054 23.8344 10.8279 23.6479 10.8287 23.4874C10.8377 22.2633 10.8287 21.0393 10.837 19.8203C10.8437 19.0463 11.4555 18.5761 12.165 18.7777C12.6159 18.9059 12.894 19.2818 12.8962 19.7908C12.9012 21.2308 12.904 22.6689 12.9045 24.1051C12.9045 31.7373 12.9025 39.3708 12.8985 47.0059C12.8985 48.0045 13.6012 48.8289 14.5647 48.9845C15.6169 49.1537 16.5759 48.6209 16.8998 47.669C16.9763 47.4414 17.0156 47.2039 17.0163 46.9648C17.0163 43.454 17.0065 39.9425 17.0065 36.4317C17.0065 33.3525 17.012 30.273 17.023 27.1933C17.023 26.5452 17.4537 26.1132 18.0639 26.1204C18.6532 26.1312 19.0688 26.5683 19.0688 27.1947C19.0688 30.1669 19.0688 33.1384 19.0688 36.1106C19.0688 37.1323 19.6978 37.9215 20.6418 38.1267C21.9826 38.4219 23.1858 37.4974 23.1888 36.1524C23.1963 33.3364 23.1888 30.5204 23.1941 27.7045C23.1941 27.5367 23.1941 27.3689 23.1941 27.2005C23.1941 26.5568 23.6217 26.1125 24.2275 26.1168C24.8332 26.1212 25.2361 26.5488 25.2376 27.1803C25.2406 29.685 25.2406 32.1897 25.2376 34.6944C25.2376 34.8859 25.2301 35.0781 25.2376 35.2704C25.3 36.2906 26.0838 37.1035 27.0789 37.1863C28.1499 37.2763 29.0638 36.6535 29.3065 35.6585C29.3403 35.4944 29.3549 35.3273 29.3501 35.1602C29.3536 32.512 29.3561 29.8638 29.3576 27.2156C29.3576 26.6396 29.6808 26.2335 30.1979 26.1305C30.4272 26.0874 30.6651 26.122 30.8707 26.2284C31.0764 26.3348 31.237 26.5064 31.3252 26.7137C31.3944 26.9179 31.4262 27.132 31.4192 27.3466C31.4259 29.3238 31.4191 31.3009 31.4244 33.2781C31.4244 33.6496 31.4439 34.0204 31.4424 34.392C31.4424 34.7275 31.6093 34.968 31.937 35.0241C32.5232 35.1184 33.1252 35.23 33.7114 35.1962C34.4382 35.1544 34.8898 34.5828 34.9823 33.7691C35.0113 33.495 35.0246 33.2195 35.0221 32.944C35.0221 30.5233 35.0574 28.1019 35.0131 25.682C34.98 23.8819 35.1476 22.0941 35.3085 20.3049C35.5805 17.2852 35.3926 14.2964 34.5652 11.3645C34.1616 9.93598 33.7257 8.50891 33.1876 7.1236C32.6998 5.87006 32.5112 4.58052 32.3563 3.2737C32.3158 2.85897 32.2647 2.44496 32.2098 1.99495Z" fill="#F0EFEA"/>
</g>
<defs>
<clipPath id="clip0_574_28932">
<rect width="37" height="51" fill="white" transform="matrix(1 -8.74228e-08 -8.74228e-08 -1 0.5 51.0149)"/>
</clipPath>
</defs>
</svg>
