<svg width="32" height="117" viewBox="0 0 32 117" fill="none" xmlns="http://www.w3.org/2000/svg">
<path d="M2.37913 0.96787C1.64946 0.575612 0.73995 0.849142 0.347692 1.57882C-0.0445666 2.30849 0.228963 3.218 0.958638 3.61026L2.37913 0.96787ZM8.6967 62.2077L8.37131 63.672L8.53204 63.7077H8.6967V62.2077ZM13.332 41.2804L13.7441 39.8382L13.332 41.2804ZM28.1025 56.8421L26.6795 57.3165L28.1025 56.8421ZM7.22583 114.988C7.3883 115.8 8.17854 116.327 8.99088 116.165L22.2287 113.517C23.0411 113.355 23.5679 112.564 23.4054 111.752C23.2429 110.94 22.4527 110.413 21.6404 110.575L9.8734 112.929L7.52001 101.162C7.35754 100.349 6.5673 99.8226 5.75496 99.985C4.94262 100.147 4.4158 100.938 4.57826 101.75L7.22583 114.988ZM12.9199 42.7227C16.0918 43.629 19.0622 45.8332 21.5067 48.5994C23.9464 51.3602 25.7645 54.5717 26.6795 57.3165L29.5255 56.3678C28.4737 53.2123 26.4412 49.6529 23.7547 46.6128C21.073 43.5782 17.6416 40.9517 13.7441 39.8382L12.9199 42.7227ZM26.6795 57.3165C30.3478 68.3216 28.799 77.5553 24.7277 86.4743C20.6005 95.5154 13.9784 104.067 7.44863 113.862L9.94478 115.526C16.3031 105.988 23.1966 97.0525 27.4568 87.7201C31.7727 78.2654 33.4827 68.2394 29.5255 56.3678L26.6795 57.3165ZM20.7838 41.2804C20.7838 45.7524 20.279 50.71 18.4759 54.4997C17.5846 56.3728 16.4007 57.9083 14.8503 58.9784C13.3113 60.0405 11.32 60.7077 8.6967 60.7077V63.7077C11.8602 63.7077 14.4607 62.8924 16.5543 61.4474C18.6365 60.0103 20.126 58.014 21.1848 55.7887C23.2818 51.3814 23.7838 45.8754 23.7838 41.2804H20.7838ZM9.0221 60.7434C6.76619 60.2421 5.18197 58.7561 4.2296 56.7278C3.26338 54.6699 2.97905 52.0956 3.39137 49.6593C3.80482 47.2163 4.88749 45.0799 6.4614 43.7749C7.97408 42.5207 10.0807 41.9115 12.9199 42.7227L13.7441 39.8382C10.0223 38.7748 6.87533 39.5346 4.54653 41.4655C2.27895 43.3457 0.932295 46.211 0.433427 49.1587C-0.0665773 52.1131 0.253759 55.3187 1.51404 58.0028C2.78815 60.7164 5.05225 62.9344 8.37131 63.672L9.0221 60.7434ZM0.958638 3.61026C6.61792 6.65257 11.5979 13.5625 15.188 21.1671C18.7677 28.7498 20.7838 36.633 20.7838 41.2804H23.7838C23.7838 36.0245 21.5832 27.6864 17.9009 19.8863C14.2289 12.1082 8.9014 4.47411 2.37913 0.96787L0.958638 3.61026Z" fill="black"/>
</svg>
