<svg width="180" height="272" viewBox="0 0 180 272" fill="none" xmlns="http://www.w3.org/2000/svg">
<path opacity="0.2" d="M179.675 71.8309C182.184 93.1593 166.606 115.847 132.94 139.894C124.158 146.167 115.899 151.917 108.162 157.144C100.425 162.372 93.7338 167.181 88.088 171.573C82.6514 175.755 79.6194 179.414 78.9921 182.55C78.5739 187.569 76.1692 191.751 71.7781 195.097C67.3869 198.442 62.473 200.847 57.0364 202.311C51.5997 203.565 46.1631 203.983 40.7264 203.565C35.2898 203.147 31.3168 201.683 28.8076 199.174C22.9528 186.628 26.2984 171.573 38.8445 154.008C44.4903 146.271 51.077 138.534 58.6046 130.798C66.1323 122.852 73.4509 115.22 80.5604 107.901C87.8789 100.373 94.3611 93.2638 100.007 86.5726C106.489 78.6267 110.462 71.3081 111.926 64.6169H110.985C109.521 65.8715 108.057 67.4397 106.594 69.3217C105.339 70.9945 102.516 72.9809 98.1249 75.2811C93.7338 77.5812 89.7608 79.4631 86.2061 80.9268C82.8605 82.3905 79.6194 83.8543 76.4829 85.318C73.5554 86.5726 71.6735 87.409 70.8371 87.8272C70.2098 88.2454 69.4779 88.6636 68.6415 89.0818C68.0142 89.5 67.0733 89.9182 65.8187 90.3364L60.8002 92.2183C42.6083 96.6095 29.644 94.1003 21.9072 84.6907C19.1889 81.345 16.6797 76.7448 14.3796 70.8899C12.0795 62.5258 14.3796 52.698 21.2799 41.4066C27.1348 31.5787 34.4534 24.1556 43.2356 19.1372C52.0179 13.9096 62.9958 9.62304 76.1692 6.2774C89.5517 2.72268 102.725 0.945313 115.689 0.945313C128.654 0.945313 140.573 2.93178 151.446 6.90472C162.319 10.8777 170.474 17.2553 175.911 26.0375C178.002 30.0105 178.629 34.2971 177.793 38.8973C176.956 43.4976 176.12 47.1569 175.284 49.8752C174.656 52.3844 174.343 54.6845 174.343 56.7755C174.552 58.8666 175.388 61.2712 176.852 63.9896C178.316 66.4988 179.256 69.1126 179.675 71.8309ZM59.8593 246.536C55.4681 255.318 49.7178 261.695 42.6083 265.668C35.4989 269.85 28.5985 271.941 21.9072 271.941C15.4251 272.151 9.98843 270.373 5.59729 266.609C1.20615 262.846 -0.571217 257.304 0.265191 249.986C0.683395 239.74 5.80639 232.735 15.6342 228.971C28.1803 223.953 39.9946 223.953 51.077 228.971C61.323 233.571 64.2504 239.426 59.8593 246.536Z" fill="#22C0E8"/>
</svg>
