<svg width="215" height="60" viewBox="0 0 215 60" fill="none" xmlns="http://www.w3.org/2000/svg">
<path d="M212.289 31.6693C212.969 32.1415 213.904 31.9726 214.376 31.292C214.849 30.6114 214.68 29.6768 213.999 29.2045L212.289 31.6693ZM0.538574 57.8235C0.538575 58.6519 1.21015 59.3235 2.03857 59.3235L15.5386 59.3235C16.367 59.3235 17.0386 58.6519 17.0386 57.8235C17.0386 56.995 16.367 56.3235 15.5386 56.3235L3.53857 56.3235L3.53857 44.3235C3.53857 43.495 2.86699 42.8235 2.03857 42.8235C1.21014 42.8235 0.538568 43.495 0.538568 44.3235L0.538574 57.8235ZM6.30016 55.7401C6.8964 55.1649 6.9135 54.2153 6.33836 53.6191C5.76322 53.0229 4.81363 53.0057 4.21739 53.5809L6.30016 55.7401ZM10.8161 47.4469C10.1988 47.9994 10.1463 48.9477 10.6988 49.565C11.2513 50.1823 12.1996 50.2347 12.8169 49.6822L10.8161 47.4469ZM19.5589 43.8807C20.1975 43.353 20.2873 42.4075 19.7595 41.7689C19.2318 41.1303 18.2863 41.0405 17.6477 41.5682L19.5589 43.8807ZM24.7152 35.9688C24.0552 36.4695 23.9261 37.4104 24.4267 38.0704C24.9274 38.7304 25.8684 38.8596 26.5284 38.3589L24.7152 35.9688ZM33.7253 33.1422C34.4067 32.671 34.577 31.7366 34.1058 31.0553C33.6346 30.3739 32.7003 30.2035 32.0189 30.6748L33.7253 33.1422ZM39.5565 25.7137C38.8541 26.1529 38.6407 27.0783 39.0799 27.7808C39.5191 28.4832 40.4445 28.6966 41.147 28.2574L39.5565 25.7137ZM48.7878 23.7323C49.5107 23.3277 49.7687 22.4137 49.3642 21.6908C48.9596 20.9678 48.0456 20.7098 47.3227 21.1144L48.7878 23.7323ZM55.3084 16.906C54.5659 17.2733 54.2618 18.1731 54.6291 18.9156C54.9965 19.6581 55.8962 19.9623 56.6387 19.5949L55.3084 16.906ZM64.6877 15.873C65.4486 15.5455 65.7999 14.6631 65.4724 13.9022C65.1448 13.1412 64.2624 12.7899 63.5015 13.1175L64.6877 15.873ZM71.8916 9.77434C71.1139 10.0596 70.7146 10.9214 70.9999 11.6991C71.2852 12.4769 72.1469 12.8761 72.9247 12.5909L71.8916 9.77434ZM81.3439 9.77008C82.1366 9.52943 82.5841 8.69173 82.3434 7.89903C82.1028 7.10633 81.2651 6.6588 80.4724 6.89945L81.3439 9.77008ZM89.2002 4.52426C88.3948 4.71832 87.8992 5.52852 88.0933 6.3339C88.2873 7.13928 89.0975 7.63485 89.9029 7.44079L89.2002 4.52426ZM98.5762 5.62114C99.3917 5.47529 99.9346 4.69597 99.7887 3.88049C99.6429 3.065 98.8636 2.52215 98.0481 2.668L98.5762 5.62114ZM106.987 1.34547C106.165 1.4419 105.576 2.18708 105.672 3.00987C105.769 3.83267 106.514 4.4215 107.337 4.32507L106.987 1.34547ZM116.175 3.56115C117.002 3.51502 117.635 2.80709 117.589 1.97995C117.543 1.15281 116.835 0.519677 116.008 0.56581L116.175 3.56115ZM125.052 0.338069C124.223 0.333624 123.548 1.00158 123.544 1.83C123.539 2.65841 124.207 3.33358 125.035 3.33803L125.052 0.338069ZM133.888 3.65546C134.715 3.71032 135.429 3.08469 135.484 2.25808C135.539 1.43148 134.913 0.716905 134.087 0.662046L133.888 3.65546ZM143.094 1.53464C142.272 1.42987 141.521 2.01112 141.416 2.8329C141.311 3.65467 141.892 4.40578 142.714 4.51055L143.094 1.53464ZM151.471 5.89492C152.285 6.04865 153.07 5.51337 153.223 4.69933C153.377 3.8853 152.842 3.10076 152.028 2.94703L151.471 5.89492ZM160.857 4.88654C160.054 4.68508 159.239 5.17317 159.037 5.97673C158.836 6.78029 159.324 7.59502 160.128 7.79648L160.857 4.88654ZM168.666 10.2035C169.456 10.4512 170.298 10.0113 170.546 9.22077C170.793 8.43026 170.354 7.58857 169.563 7.34079L168.666 10.2035ZM178.109 10.2904C177.334 9.99795 176.468 10.3892 176.176 11.1643C175.883 11.9394 176.274 12.8048 177.05 13.0972L178.109 10.2904ZM185.257 16.4609C186.015 16.7963 186.901 16.4542 187.236 15.6967C187.572 14.9392 187.23 14.0532 186.472 13.7178L185.257 16.4609ZM194.633 17.6051C193.895 17.2284 192.992 17.5212 192.615 18.259C192.238 18.9969 192.531 19.9003 193.269 20.277L194.633 17.6051ZM201.058 24.525C201.775 24.9412 202.693 24.6979 203.109 23.9816C203.525 23.2653 203.282 22.3473 202.566 21.9311L201.058 24.525ZM210.255 26.6795C209.562 26.2255 208.632 26.4192 208.178 27.1122C207.724 27.8051 207.918 28.7349 208.611 29.1889L210.255 26.6795ZM3.09923 58.8841C4.16438 57.819 5.2314 56.771 6.30016 55.7401L4.21739 53.5809C3.13557 54.6244 2.05571 55.685 0.977913 56.7628L3.09923 58.8841ZM12.8169 49.6822C15.058 47.6763 17.3056 45.7429 19.5589 43.8807L17.6477 41.5682C15.3637 43.4559 13.0861 45.415 10.8161 47.4469L12.8169 49.6822ZM26.5284 38.3589C28.9226 36.5426 31.322 34.8042 33.7253 33.1422L32.0189 30.6748C29.579 32.3621 27.1441 34.1263 24.7152 35.9688L26.5284 38.3589ZM41.147 28.2574C43.6913 26.6665 46.2387 25.1588 48.7878 23.7323L47.3227 21.1144C44.7308 22.5649 42.1416 24.0973 39.5565 25.7137L41.147 28.2574ZM56.6387 19.5949C59.322 18.2675 62.0055 17.0276 64.6877 15.873L63.5015 13.1175C60.7703 14.2931 58.0388 15.5552 55.3084 16.906L56.6387 19.5949ZM72.9247 12.5909C75.7349 11.5601 78.5419 10.6207 81.3439 9.77008L80.4724 6.89945C77.6158 7.76665 74.755 8.7241 71.8916 9.77434L72.9247 12.5909ZM89.9029 7.44079C92.8021 6.74223 95.6939 6.13664 98.5762 5.62114L98.0481 2.668C95.1072 3.19397 92.1572 3.81177 89.2002 4.52426L89.9029 7.44079ZM107.337 4.32507C110.296 3.97828 113.242 3.7247 116.175 3.56115L116.008 0.56581C113.015 0.732735 110.007 0.991552 106.987 1.34547L107.337 4.32507ZM125.035 3.33803C128.005 3.35396 130.956 3.46089 133.888 3.65546L134.087 0.662046C131.095 0.463476 128.082 0.354331 125.052 0.338069L125.035 3.33803ZM142.714 4.51055C145.657 4.88575 148.577 5.34839 151.471 5.89492L152.028 2.94703C149.076 2.38951 146.097 1.91749 143.094 1.53464L142.714 4.51055ZM160.128 7.79648C163.004 8.5176 165.851 9.32116 168.666 10.2035L169.563 7.34079C166.693 6.4413 163.79 5.62195 160.857 4.88654L160.128 7.79648ZM177.05 13.0972C179.822 14.1433 182.559 15.2658 185.257 16.4609L186.472 13.7178C183.723 12.5003 180.934 11.3565 178.109 10.2904L177.05 13.0972ZM193.269 20.277C195.908 21.6245 198.506 23.0418 201.058 24.525L202.566 21.9311C199.966 20.4208 197.321 18.9775 194.633 17.6051L193.269 20.277ZM208.611 29.1889C209.849 30.0001 211.075 30.8271 212.289 31.6693L213.999 29.2045C212.764 28.3472 211.515 27.5054 210.255 26.6795L208.611 29.1889Z" fill="#FFEB78"/>
</svg>
