<svg width="48" height="67" viewBox="0 0 48 67" fill="none" xmlns="http://www.w3.org/2000/svg">
<g clip-path="url(#clip0_4010_51481)">
<path d="M48.0003 39.9402C47.7702 40.531 47.621 41.1646 47.2983 41.705C45.3961 44.8945 40.7892 45.0418 38.6208 41.9762C37.3933 40.2431 36.2457 38.4587 35.0611 36.6976C34.9397 36.4977 34.783 36.3192 34.598 36.1703L34.598 36.7414C34.598 44.8672 34.598 52.9933 34.598 61.1197C34.598 63.068 33.818 64.6315 32.0737 65.6658C30.3295 66.7001 28.4984 66.756 26.6995 65.8168C24.9007 64.8775 23.9491 63.3755 23.9218 61.4215C23.8789 58.3988 23.9091 55.3743 23.9091 52.3507L23.9091 51.8111C20.9792 53.0225 18.5652 52.4504 16.6366 50.0054C16.5391 50.0706 16.4163 50.1414 16.3012 50.2178C15.1721 50.9764 13.7803 51.2898 12.4156 51.0926C11.0508 50.8955 9.81817 50.203 8.97412 49.1593C8.70402 48.855 8.39998 48.5797 8.06738 48.3384C7.98646 48.276 7.79926 48.3328 7.66178 48.3431C6.64584 48.4195 5.62015 48.6226 4.61785 48.549C2.48554 48.3878 0.95772 46.8093 0.620371 44.5945C0.553766 44.1338 0.521185 43.6693 0.522871 43.2043C0.516047 39.5601 0.559912 35.9149 0.502391 32.2717C0.474117 30.4631 0.29375 28.6536 0.13385 26.8487C-0.392647 20.8163 0.615494 15.0002 2.85798 9.37778C3.62628 7.44434 3.89245 5.45405 4.12548 3.4386C4.2376 2.45371 4.32048 1.46602 4.42383 0.480198L30.0662 0.4802C30.1962 2.38165 30.3262 4.28311 30.4562 6.18456C30.4833 6.70999 30.6738 7.21575 31.0032 7.63722C31.9363 8.84854 32.8284 10.0869 33.7332 11.3196C35.3907 13.5894 36.8531 15.9552 37.8974 18.5484C38.2679 19.4727 38.5682 20.4334 39.0362 21.3111C41.4356 25.8088 43.8848 30.2833 46.3047 34.7716C46.9482 35.9643 47.7185 37.1067 48.012 38.4485L48.0003 39.9402ZM6.86228 3.04166C6.79111 3.62496 6.72482 4.1598 6.66047 4.70024C6.45962 6.39142 6.21489 8.06024 5.58212 9.68247C4.88402 11.4752 4.31463 13.322 3.79495 15.1707C2.72246 18.9649 2.47773 22.8327 2.83068 26.7406C3.03933 29.0561 3.25676 31.3669 3.21386 33.6992C3.15633 36.8309 3.19826 39.9645 3.20216 43.0971C3.19889 43.4537 3.21615 43.8102 3.25384 44.1649C3.37376 45.2179 3.95972 45.9577 4.90254 46.0117C5.66304 46.0555 6.44401 45.9111 7.2045 45.789C7.6296 45.7201 7.84704 45.4051 7.84606 44.9709C7.84606 44.4901 7.86946 44.0103 7.86946 43.5295C7.86946 40.9708 7.86946 38.4121 7.87628 35.8534C7.86717 35.5758 7.90841 35.2987 7.99815 35.0344C8.11254 34.7661 8.32097 34.544 8.58776 34.4064C8.85455 34.2687 9.16312 34.2239 9.46065 34.2797C10.1314 34.4129 10.5497 34.9394 10.5507 35.6839C10.5552 39.111 10.5585 42.5381 10.5604 45.9651C10.5542 46.1814 10.5732 46.3977 10.617 46.6099C10.9319 47.8977 12.1175 48.7037 13.5069 48.5872C14.7978 48.48 15.8147 47.428 15.8956 46.1077C15.9102 45.8599 15.8956 45.6111 15.8956 45.3623C15.8956 42.1203 15.8956 38.8789 15.8956 35.6382C15.8956 34.8192 16.4328 34.2675 17.206 34.262C17.9792 34.2564 18.5418 34.8313 18.5466 35.6643C18.5466 35.8814 18.5466 36.0985 18.5466 36.3165C18.5466 39.9607 18.5466 43.6049 18.5535 47.2491C18.5535 48.9897 20.1134 50.1861 21.8577 49.8041C23.0823 49.5348 23.8955 48.5136 23.8984 47.1951C23.9062 43.3487 23.8984 39.5032 23.8984 35.6568C23.8984 34.8462 24.4376 34.2806 25.202 34.2666C25.9937 34.2536 26.5494 34.8126 26.5523 35.655C26.5627 39.6405 26.5699 43.6258 26.5738 47.6107C26.5738 52.154 26.5582 56.6983 26.5611 61.2417C26.5619 61.5511 26.6129 61.8585 26.7122 62.153C27.1324 63.3848 28.3785 64.0743 29.7415 63.8554C30.9915 63.6541 31.9031 62.5872 31.9031 61.2948C31.9031 51.4179 31.9005 41.5392 31.8953 31.6586C31.8953 29.795 31.8989 27.9339 31.906 26.0753C31.906 25.4175 32.2687 24.9302 32.8547 24.7643C33.7751 24.5034 34.5687 25.1119 34.5775 26.1135C34.5912 27.6976 34.5775 29.2816 34.5882 30.8591C34.5882 31.0669 34.6185 31.3082 34.7306 31.4759C36.7488 34.5098 38.7775 37.5369 40.8165 40.5571C41.2396 41.1832 41.8529 41.582 42.6612 41.624C43.6138 41.6696 44.3821 41.3053 44.9037 40.5506C45.4887 39.6989 45.4633 38.796 44.9797 37.9043C42.2621 32.8863 39.5428 27.8696 36.8219 22.8542C36.6211 22.4814 36.3851 22.1218 36.2467 21.7295C35.3906 19.3013 34.3835 16.9373 32.8937 14.7961C31.4585 12.7313 29.9473 10.714 28.4974 8.65751C28.2322 8.2723 28.0408 7.84512 27.9319 7.39588C27.7935 6.84241 27.7633 6.26284 27.7087 5.69259C27.6258 4.81764 27.5614 3.94083 27.4883 3.04539L6.86228 3.04166Z" fill="#22C0E8"/>
<path d="M6.86192 3.04237L27.4997 3.04237C27.5728 3.93781 27.6371 4.81275 27.72 5.68956C27.7746 6.25981 27.8048 6.83938 27.9433 7.39286C28.0521 7.8421 28.2436 8.26928 28.5088 8.65449C29.9586 10.7109 31.4698 12.7282 32.905 14.7931C34.3948 16.9362 35.402 19.2982 36.258 21.7265C36.3965 22.1187 36.6324 22.4803 36.8333 22.8511C39.5516 27.8678 42.2708 32.8846 44.9911 37.9013C45.4786 38.793 45.502 39.6959 44.915 40.5475C44.3953 41.3023 43.627 41.6657 42.6725 41.6209C41.8643 41.5818 41.251 41.1802 40.8278 40.5541C38.7875 37.5345 36.7589 34.5074 34.7419 31.4729C34.6298 31.3052 34.6005 31.0638 34.5996 30.8561C34.5879 29.272 34.5996 27.688 34.5888 26.1105C34.5801 25.1088 33.7864 24.5004 32.866 24.7613C32.281 24.9271 31.9203 25.4135 31.9174 26.0723C31.9109 27.9359 31.9073 29.7969 31.9066 31.6555C31.9066 41.5324 31.9092 51.4112 31.9144 61.2918C31.9144 62.5842 31.0028 63.6511 29.7529 63.8523C28.3879 64.0713 27.1438 63.3818 26.7236 62.15C26.6242 61.8555 26.5733 61.5481 26.5724 61.2387C26.5724 56.6953 26.5851 52.151 26.5851 47.6076C26.5851 43.6227 26.578 39.6375 26.5637 35.6519C26.5637 34.8133 26.005 34.2543 25.2133 34.2636C24.4489 34.2776 23.9097 34.8432 23.9097 35.6538C23.9097 39.5002 23.9097 43.3457 23.9097 47.1921C23.9097 48.5143 23.0936 49.5355 21.869 49.8011C20.1297 50.1831 18.5687 48.9867 18.5648 47.2461C18.555 43.6019 18.5648 39.9577 18.558 36.3135C18.558 36.0964 18.558 35.8793 18.558 35.6613C18.558 34.8283 18.0032 34.2533 17.2173 34.2589C16.4315 34.2645 15.9089 34.818 15.9069 35.6352C15.903 38.8765 15.903 42.1179 15.9069 45.3592C15.9069 45.6071 15.9167 45.8559 15.9069 46.1047C15.826 47.425 14.8091 48.477 13.5182 48.5841C12.1288 48.7006 10.9432 47.8946 10.6283 46.6069C10.5845 46.3946 10.5655 46.1784 10.5718 45.9621C10.5672 42.535 10.564 39.1079 10.562 35.6808C10.562 34.9354 10.1428 34.4099 9.47198 34.2766C9.17444 34.2209 8.86588 34.2657 8.59909 34.4033C8.3323 34.541 8.12388 34.763 8.00949 35.0314C7.91974 35.2956 7.8785 35.5727 7.88761 35.8504C7.87884 38.4091 7.88761 40.9678 7.88079 43.5264C7.88079 44.0072 7.85544 44.4871 7.85739 44.9679C7.85739 45.4021 7.64094 45.7133 7.21584 45.786C6.45534 45.9081 5.67437 46.0525 4.91387 46.0087C3.97105 45.9547 3.38509 45.2148 3.26517 44.1619C3.22748 43.8071 3.21022 43.4507 3.21349 43.0941C3.21349 39.9614 3.16766 36.8279 3.22519 33.6961C3.26809 31.3667 3.05066 29.0531 2.84201 26.7376C2.48906 22.8297 2.73281 18.9619 3.80628 15.1676C4.32985 13.319 4.89536 11.4722 5.59346 9.67945C6.22623 8.05722 6.47095 6.3884 6.6718 4.69721C6.72445 4.16051 6.79074 3.62473 6.86192 3.04237Z" fill="white"/>
</g>
<defs>
<clipPath id="clip0_4010_51481">
<rect width="48" height="66" fill="white" transform="translate(48 66.4795) rotate(-180)"/>
</clipPath>
</defs>
</svg>
