<svg width="41" height="40" viewBox="0 0 41 40" fill="none" xmlns="http://www.w3.org/2000/svg">
<circle cx="20.0618" cy="20" r="20" fill="black"/>
<path d="M22.0858 13.1332H18.2498V9.6332H22.0858V13.1332ZM16.7658 28.5332V26.8532L17.8298 26.5732C17.9978 26.5172 18.1191 26.4519 18.1938 26.3772C18.2685 26.3025 18.3058 26.1345 18.3058 25.8732V17.6132C18.3058 17.3519 18.2778 17.1839 18.2218 17.1092C18.1845 17.0345 18.0818 16.9692 17.9138 16.9132L17.2138 16.6332V15.0932H22.0858V25.8732C22.0858 26.1159 22.1231 26.2839 22.1978 26.3772C22.2725 26.4519 22.4031 26.5172 22.5898 26.5732L23.6258 26.8532V28.5332H16.7658Z" fill="white"/>
</svg>
